<svg width="65" height="118" viewBox="0 0 65 118" fill="none" xmlns="http://www.w3.org/2000/svg">
<path d="M0.560348 87.1093C4.34606 113.155 27.0604 121.105 43.3389 116.184C60.8668 110.884 68.7033 92.2579 62.154 75.3736C55.6047 58.4893 31.1111 57.0886 24.2968 72.1179C18.8075 84.2321 24.789 95.4379 35.654 97.7471C46.519 100.056 49.2825 87.2229 44.2475 83.4371C44.2475 83.4371 43.7554 89.7214 38.1904 89.2293C32.6254 88.7371 29.5968 79.7271 37.9254 77.4179C46.254 75.1086 53.3332 84.4593 50.5318 93.9993C47.7682 103.577 25.5461 108.612 18.2397 88.9643C10.9332 69.3164 30.3539 46.4129 35.3889 38.6143C40.4239 30.8157 44.9668 8.25286 19.1104 0C19.1104 0 32.7389 12.6821 22.8961 27.03C13.0532 41.4157 -3.22537 61.0636 0.560348 87.1093Z" fill="url(#paint0_linear)"/>
<path d="M30.7326 26.1214C23.9183 40.2421 12.8261 50.9936 9.04043 66.9314C5.25471 82.9071 8.54831 99.5264 26.7197 107.628C44.8912 115.729 61.6618 101.495 56.5133 81.1278C52.2733 64.3571 30.3919 65.8336 28.234 80.1057C25.9626 95.2486 44.0204 98.6179 44.2854 83.475C44.2854 83.475 43.7933 89.7593 38.2283 89.2671C32.6633 88.775 29.6347 79.765 37.9633 77.4557C46.2919 75.1464 53.3712 84.4971 50.5697 94.0371C47.8062 103.615 25.584 108.65 18.2776 89.0021C10.9712 69.3543 30.3919 46.4507 35.4269 38.6521C40.4619 30.8536 45.0047 8.2907 19.1483 0.0378418C19.1105 0.0378418 37.5469 12.0007 30.7326 26.1214Z" fill="url(#paint1_linear)"/>
<path d="M62.154 75.4114C55.6047 58.5271 31.1111 57.1264 24.2968 72.1557C18.8075 84.27 24.789 95.4757 35.654 97.785C46.519 100.094 49.2825 87.2607 44.2475 83.475C44.0204 98.6178 25.9247 95.2485 28.1961 80.1057C30.3539 65.8335 52.2354 64.3193 56.4754 81.1278C61.624 101.495 44.8532 115.729 26.6818 107.628C8.51035 99.5264 5.2168 82.9071 9.00252 66.9314C12.7882 50.9557 23.8804 40.2421 30.6947 26.1214C37.509 12.0007 19.1104 0.0756836 19.1104 0.0756836C19.1104 0.0756836 32.7389 12.7578 22.8961 27.1057C13.0532 41.4535 -3.22537 61.1014 0.560348 87.1471C4.34606 113.193 27.0604 121.143 43.3389 116.221C60.9047 110.921 68.7033 92.2957 62.154 75.4114Z" fill="url(#paint2_linear)"/>
<defs>
<linearGradient id="paint0_linear" x1="55.7094" y1="52.0991" x2="12.9185" y2="62.6818" gradientUnits="userSpaceOnUse">
<stop stop-color="#95C93D"/>
<stop offset="1" stop-color="#66952E"/>
</linearGradient>
<linearGradient id="paint1_linear" x1="37.4953" y1="50.0271" x2="-6.92375" y2="90.4081" gradientUnits="userSpaceOnUse">
<stop stop-color="#95C93D"/>
<stop offset="1" stop-color="#66952E"/>
</linearGradient>
<linearGradient id="paint2_linear" x1="5.97892" y1="50.7576" x2="52.1647" y2="73.2195" gradientUnits="userSpaceOnUse">
<stop stop-color="#8DC63F"/>
<stop offset="1" stop-color="#588426"/>
</linearGradient>
</defs>
</svg>
