<svg width="99" height="122" viewBox="0 0 99 122" fill="none" xmlns="http://www.w3.org/2000/svg">
<path d="M98.6743 50.9434C97.955 15.282 80.3893 3.43271 65.2086 0.479851C50.0279 -2.47301 26.7079 8.08915 29.3958 35.3084C32.0837 62.5277 59.5679 62.5277 67.4044 52.2305C75.2408 41.9334 70.0922 31.8634 63.7322 29.6677C57.3722 27.472 55.1386 32.8477 55.1386 32.8477C60.0601 29.6677 64.7165 38.7156 58.0915 41.6684C51.4665 44.6213 41.8508 40.2299 44.8794 27.9263C48.2865 14.1084 84.0993 11.2691 78.4586 53.6691C72.8179 96.0691 49.5358 103.943 35.0744 103.186C20.6129 102.429 16.6758 93.6084 17.4329 84.2955C18.1522 74.9827 23.4901 63.3984 22.0137 54.8049C20.5372 46.2113 13.0037 40.2677 5.47011 44.1291C-2.8206 48.3691 -0.587034 58.4013 4.90225 59.5748C9.86153 60.6348 10.5429 57.5684 10.5429 57.5684C4.71293 58.8556 4.22081 51.0948 10.2401 50.4134C16.6758 49.6941 17.1679 56.622 10.0508 77.9356C2.93367 99.2491 11.7544 123.061 44.3872 121.812C76.9443 120.638 99.3936 86.6048 98.6743 50.9434Z" fill="url(#paint0_linear)"/>
<path d="M98.6743 50.9434C97.955 15.282 80.3893 3.43271 65.2086 0.479851C50.0279 -2.47301 26.7079 8.08915 29.3957 35.3084C32.0836 62.5277 59.5679 62.5277 67.4043 52.2305C75.2407 41.9334 70.0921 31.8634 63.7321 29.6677C57.3721 27.472 55.1386 32.8477 55.1386 32.8477C55.1386 32.8477 60.2493 27.9641 64.4136 35.157C68.5779 42.3498 59.8707 53.707 47.5672 48.9748C35.2636 44.2427 30.91 23.232 47.5672 13.1998C64.2243 3.16771 85.6136 15.8498 89.0207 41.5927C92.4279 67.3356 78.4207 98.757 57.9779 108.6C37.535 118.443 15.8429 110.076 12.9279 94.0248C10.0129 77.9734 19.3636 69.7963 18.4172 54.8427C17.4707 39.8891 -2.48 46.2113 3.31215 55.5998C5.92429 59.8398 10.505 57.6441 10.505 57.6441C4.675 58.9313 4.18289 51.1706 10.2022 50.4891C16.6379 49.7698 17.13 56.6977 10.0129 78.0113C2.89575 99.3248 11.7164 123.137 44.3493 121.888C76.9443 120.638 99.3936 86.6048 98.6743 50.9434Z" fill="url(#paint1_linear)"/>
<path d="M3.31223 55.5998C-2.47992 46.2113 17.4708 39.8891 18.4172 54.8427C19.3637 69.7963 10.013 77.9734 12.928 94.0248C15.843 110.076 37.5351 118.443 57.978 108.6C78.4208 98.757 92.428 67.3356 89.0208 41.5927C85.6137 15.8499 64.2244 3.16771 47.5673 13.1998C30.9101 23.232 35.2637 44.2427 47.5673 48.9748C59.8708 53.707 68.578 42.3498 64.4137 35.157C60.2494 27.9641 55.1387 32.8477 55.1387 32.8477C60.0601 29.6677 64.7166 38.7156 58.0916 41.6684C51.4666 44.6213 41.8508 40.2299 44.8794 27.9263C48.2865 14.1084 84.0994 11.2691 78.4587 53.6691C72.818 96.0691 49.5358 103.943 35.0744 103.186C20.613 102.429 16.6758 93.6084 17.433 84.2956C18.1522 74.9827 23.4901 63.3984 22.0137 54.8049C20.5372 46.2113 13.0037 40.2677 5.47011 44.1291C-2.82061 48.3691 -0.587034 58.4013 4.90225 59.5748C9.86154 60.6348 10.5429 57.5684 10.5429 57.5684C10.5429 57.5684 5.92437 59.8398 3.31223 55.5998Z" fill="url(#paint2_linear)"/>
<defs>
<linearGradient id="paint0_linear" x1="99.0289" y1="49.4029" x2="30.3183" y2="66.3959" gradientUnits="userSpaceOnUse">
<stop stop-color="#95C93D"/>
<stop offset="1" stop-color="#66952E"/>
</linearGradient>
<linearGradient id="paint1_linear" x1="16.0781" y1="39.9374" x2="88.7602" y2="85.9316" gradientUnits="userSpaceOnUse">
<stop stop-color="#8DC63F"/>
<stop offset="1" stop-color="#588426"/>
</linearGradient>
<linearGradient id="paint2_linear" x1="87.072" y1="49.4542" x2="30.2891" y2="68.1925" gradientUnits="userSpaceOnUse">
<stop stop-color="#95C93D"/>
<stop offset="1" stop-color="#66952E"/>
</linearGradient>
</defs>
</svg>
