<svg width="125" height="108" viewBox="0 0 125 108" fill="none" xmlns="http://www.w3.org/2000/svg">
<path d="M38.5904 28.6084C20.4189 11.9513 -5.51322 29.9713 1.03607 53.2156C6.97965 74.4156 33.6689 67.0334 33.6689 54.162C33.6689 41.2906 22.3118 41.1013 18.9047 45.8334C18.9047 45.8334 26.8925 46.4391 25.2647 53.2156C23.6368 60.0298 10.5761 57.1906 12.6582 45.8334C14.7404 34.4763 30.8297 33.5298 35.9404 45.2656C41.0511 57.0013 54.6797 107.541 54.6797 107.541C54.6797 107.541 56.7618 45.2656 38.5904 28.6084Z" fill="url(#paint0_linear)"/>
<path d="M76.2204 8.16556C53.3547 29.1384 55.9668 107.503 55.9668 107.503C55.9668 107.503 73.1161 43.9027 79.5518 29.1006C85.9875 14.3363 106.241 15.5098 108.853 29.8198C111.465 44.1298 95.0354 47.6884 92.9911 39.1327C90.9468 30.577 100.979 29.8198 100.979 29.8198C96.7011 23.8763 82.3911 24.1034 82.3911 40.3063C82.3911 56.5091 115.97 65.7841 123.466 39.1327C131.757 9.90698 99.124 -12.8073 76.2204 8.16556Z" fill="url(#paint1_linear)"/>
<path d="M18.6017 31.4856C1.83104 36.937 4.97318 54.5784 13.3017 59.4999C20.7596 63.9292 30.1482 60.0677 28.8232 52.0042C27.4982 43.9406 18.9046 45.8335 18.9046 45.8335C18.9046 45.8335 26.8924 46.4392 25.2646 53.2156C23.6367 60.0299 10.576 57.1906 12.6582 45.8335C14.7403 34.4763 30.8296 33.5299 35.9403 45.2656C41.051 57.0013 54.6796 107.541 54.6796 107.541C47.411 40.2684 35.3724 26.0341 18.6017 31.4856Z" fill="url(#paint2_linear)"/>
<path d="M38.5904 28.6084C20.4189 11.9513 -5.51322 29.9713 1.03607 53.2156C6.97965 74.4156 33.6689 67.0334 33.6689 54.162C33.6689 41.2906 22.3118 41.1013 18.9047 45.8334C18.9047 45.8334 27.4982 43.9406 28.8232 52.0041C30.1482 60.0677 20.7597 63.9291 13.3018 59.4998C4.97323 54.5784 1.83108 36.937 18.6018 31.4855C35.3725 26.0341 47.4111 40.2684 54.6797 107.541C54.6797 107.541 56.7618 45.2656 38.5904 28.6084Z" fill="url(#paint3_linear)"/>
<path d="M76.2204 8.16556C53.3547 29.1384 55.9668 107.503 55.9668 107.503C65.0904 22.8541 80.309 4.94769 101.395 11.7998C122.482 18.652 118.545 40.8741 108.058 47.0448C98.6697 52.6098 86.8583 47.7641 88.524 37.6184C90.1897 27.4727 101.017 29.8198 101.017 29.8198C96.739 23.8763 82.429 24.1034 82.429 40.3063C82.429 56.5091 116.008 65.7841 123.504 39.1327C131.757 9.90698 99.124 -12.8073 76.2204 8.16556Z" fill="url(#paint4_linear)"/>
<path d="M88.524 37.6185C86.8582 47.7642 98.6697 52.6099 108.058 47.0449C118.545 40.8363 122.482 18.652 101.395 11.7999C80.309 4.94775 65.1282 22.8542 55.9668 107.503C55.9668 107.503 73.1161 43.9028 79.5518 29.1006C85.9875 14.3363 106.241 15.5099 108.853 29.8199C111.465 44.1299 95.0354 47.6885 92.9911 39.1328C90.9468 30.5771 100.979 29.8199 100.979 29.8199C100.979 29.8199 90.2275 27.4728 88.524 37.6185Z" fill="url(#paint5_linear)"/>
<defs>
<linearGradient id="paint0_linear" x1="51.4346" y1="61.3656" x2="19.0895" y2="69.3649" gradientUnits="userSpaceOnUse">
<stop stop-color="#95C93D"/>
<stop offset="1" stop-color="#66952E"/>
</linearGradient>
<linearGradient id="paint1_linear" x1="127.087" y1="40.7286" x2="68.5327" y2="55.2099" gradientUnits="userSpaceOnUse">
<stop stop-color="#95C93D"/>
<stop offset="1" stop-color="#66952E"/>
</linearGradient>
<linearGradient id="paint2_linear" x1="50.5996" y1="62.535" x2="22.776" y2="76.1629" gradientUnits="userSpaceOnUse">
<stop stop-color="#95C93D"/>
<stop offset="1" stop-color="#66952E"/>
</linearGradient>
<linearGradient id="paint3_linear" x1="3.88191" y1="29.5716" x2="49.3082" y2="70.4552" gradientUnits="userSpaceOnUse">
<stop stop-color="#95C93D"/>
<stop offset="1" stop-color="#66952E"/>
</linearGradient>
<linearGradient id="paint4_linear" x1="54.8938" y1="24.51" x2="91.8027" y2="64.258" gradientUnits="userSpaceOnUse">
<stop stop-color="#95C93D"/>
<stop offset="1" stop-color="#66952E"/>
</linearGradient>
<linearGradient id="paint5_linear" x1="120.171" y1="47.5321" x2="67.3628" y2="60.5922" gradientUnits="userSpaceOnUse">
<stop stop-color="#95C93D"/>
<stop offset="1" stop-color="#66952E"/>
</linearGradient>
</defs>
</svg>
