<svg width="105" height="119" viewBox="0 0 105 119" fill="none" xmlns="http://www.w3.org/2000/svg">
<path d="M59.2472 7.14815C42.9307 20.0953 54.2122 50.3053 60.6857 62.041C67.1593 73.7767 64.055 93.9168 46.0729 93.9168C28.0907 93.9168 27.3714 80.9696 29.5293 72.3382C31.6872 63.5932 28.0907 49.321 15.3707 49.6617C2.65072 50.0024 0.0385742 58.8989 0.0385742 58.8989C23.2829 48.8289 20.8979 68.7417 18.0207 77.3732C15.1436 86.0046 13.705 119.319 49.6693 118.372C85.6336 117.426 84.4222 77.146 76.775 61.5489C69.09 45.9517 63.8279 27.2503 74.125 20.8903C84.4222 14.5303 93.0536 22.4424 91.3879 30.3546C89.7222 38.2667 80.3715 35.3896 81.0907 30.8467C81.81 26.3039 86.6179 27.3639 86.6179 27.3639C86.1257 23.4267 76.0557 20.2846 72.9514 28.4239C69.8472 36.5632 75.1093 48.0717 89.8357 45.9139C104.562 43.756 107.212 21.4581 101.306 11.161C95.4007 0.863856 75.5257 -5.79899 59.2472 7.14815Z" fill="url(#paint0_linear)"/>
<path d="M77.2286 28.7267C74.7679 34.0646 78.9321 41.7874 87.0714 40.841C95.2107 39.8946 98.9964 29.4839 95.4 19.4517C91.8036 9.41957 73.4429 4.68743 64.3571 15.4767C55.2714 26.266 60.1929 42.9231 68.9 63.7446C77.6071 84.566 65.1143 105.387 44.6714 105.009C24.2286 104.63 21.0107 91.0017 22.9036 77.5624C24.7964 64.1232 24.0393 54.4696 14.3857 53.6367C4.73214 52.8039 0 58.9367 0 58.9367C23.2443 48.8667 20.8593 68.7796 17.9821 77.411C15.105 86.0424 13.6664 119.357 49.6307 118.41C85.595 117.464 84.3836 77.1839 76.7364 61.5867C69.0514 45.9896 63.7893 27.2882 74.0864 20.9282C84.3836 14.5682 93.015 22.4803 91.3493 30.3924C89.6836 38.3046 80.3328 35.4274 81.0521 30.8846C81.7714 26.3417 86.5793 27.4017 86.5793 27.4017C86.5793 27.4017 79.6893 23.3889 77.2286 28.7267Z" fill="url(#paint1_linear)"/>
<path d="M59.2472 7.1484C42.9307 20.0955 54.2122 50.3055 60.6857 62.0412C67.1593 73.777 64.055 93.917 46.0729 93.917C28.0907 93.917 27.3714 80.9698 29.5293 72.3384C31.6872 63.5934 28.0907 49.3212 15.3707 49.662C2.65072 50.0027 0.0385742 58.8991 0.0385742 58.8991C0.0385742 58.8991 4.77072 52.7284 14.4243 53.5991C24.0779 54.4698 24.835 64.0855 22.9422 77.5248C21.0493 90.9641 24.2293 104.631 44.6722 105.009C65.115 105.388 77.6079 84.5662 68.9007 63.7448C60.1936 42.9234 55.2722 26.2663 64.3579 15.477C73.4436 4.68769 91.8043 9.41983 95.4008 19.452C98.9972 29.4841 95.2115 39.8948 87.0722 40.8412C78.9329 41.7877 74.7686 34.0648 77.2293 28.727C79.69 23.3891 86.5422 27.402 86.5422 27.402C86.05 23.4648 75.98 20.3227 72.8757 28.462C69.7715 36.6012 75.0336 48.1098 89.76 45.952C104.486 43.7941 107.136 21.4963 101.231 11.1991C95.325 0.901976 75.5257 -5.79874 59.2472 7.1484Z" fill="url(#paint2_linear)"/>
<defs>
<linearGradient id="paint0_linear" x1="109.428" y1="48.1049" x2="34.5188" y2="66.6307" gradientUnits="userSpaceOnUse">
<stop stop-color="#95C93D"/>
<stop offset="1" stop-color="#66952E"/>
</linearGradient>
<linearGradient id="paint1_linear" x1="110.388" y1="59.6856" x2="59.8515" y2="64.2282" gradientUnits="userSpaceOnUse">
<stop stop-color="#95C93D"/>
<stop offset="1" stop-color="#66952E"/>
</linearGradient>
<linearGradient id="paint2_linear" x1="96.8603" y1="37.8513" x2="23.6104" y2="68.514" gradientUnits="userSpaceOnUse">
<stop stop-color="#95C93D"/>
<stop offset="1" stop-color="#66952E"/>
</linearGradient>
</defs>
</svg>
